<svg width="9" height="9" viewBox="0 0 9 9" fill="none" xmlns="http://www.w3.org/2000/svg">
<g clip-path="url(#clip0_138_4)">
<path fill-rule="evenodd" clip-rule="evenodd" d="M6.92312 5.53846C6.31042 5.53846 5.77561 5.85866 5.46788 6.33877L3.61423 5.27954C3.734 5.04416 3.80773 4.78177 3.80773 4.5C3.80773 4.32588 3.77416 4.16111 3.72639 4.00257L5.65481 2.90077C5.97085 3.24346 6.42015 3.46154 6.92312 3.46154C7.87919 3.46154 8.65388 2.68685 8.65388 1.73077C8.65388 0.774692 7.87919 0 6.92312 0C5.96704 0 5.19235 0.774692 5.19235 1.73077C5.19235 1.90488 5.22592 2.06965 5.27369 2.22853L3.34527 3.33C3.02923 2.98765 2.57992 2.76923 2.07696 2.76923C1.12088 2.76923 0.346191 3.54392 0.346191 4.5C0.346191 5.45608 1.12088 6.23077 2.07696 6.23077C2.47158 6.23077 2.83123 6.09368 3.12234 5.87145L5.21138 7.08232C5.20446 7.14462 5.19235 7.20485 5.19235 7.26923C5.19235 8.22531 5.96704 9 6.92312 9C7.87919 9 8.65388 8.22531 8.65388 7.26923C8.65388 6.31315 7.87919 5.53846 6.92312 5.53846Z" fill="black"/>
</g>
<defs>
<clipPath id="clip0_138_4">
<rect width="9" height="9" fill="white"/>
</clipPath>
</defs>
</svg>
