<svg width="14" height="14" viewBox="0 0 14 14" fill="none" xmlns="http://www.w3.org/2000/svg">
<g clip-path="url(#clip0_132_3)">
<path fill-rule="evenodd" clip-rule="evenodd" d="M3.5 4.6665C3.5 2.73351 5.067 1.1665 7 1.1665C8.93299 1.1665 10.5 2.73351 10.5 4.6665C10.5 6.5995 8.93299 8.1665 7 8.1665C5.067 8.1665 3.5 6.5995 3.5 4.6665Z" fill="#323232"/>
<path fill-rule="evenodd" clip-rule="evenodd" d="M3.16793 9.85995C4.1158 9.46259 5.38014 9.3335 6.99988 9.3335C8.6163 9.3335 9.87869 9.46206 10.8257 9.85739C11.8422 10.2817 12.4662 11.0026 12.7988 12.0511C12.9224 12.4407 12.6301 12.8335 12.2261 12.8335H1.77005C1.36769 12.8335 1.07717 12.4425 1.19973 12.055C1.53134 11.0066 2.15307 10.2854 3.16793 9.85995Z" fill="#323232"/>
</g>
<defs>
<clipPath id="clip0_132_3">
<rect width="14" height="14" fill="white"/>
</clipPath>
</defs>
</svg>
